<?xml version="1.0" encoding="utf-8"?>
<!-- Generator: Adobe Illustrator 27.8.1, SVG Export Plug-In . SVG Version: 6.00 Build 0)  -->
<svg version="1.1" id="a" xmlns="http://www.w3.org/2000/svg" xmlns:xlink="http://www.w3.org/1999/xlink" x="0px" y="0px"
	 viewBox="0 0 441.9 63.8" style="enable-background:new 0 0 441.9 63.8;" xml:space="preserve">
<style type="text/css">
	.st0{fill:#FFFFFF;}
</style>
<path class="st0" d="M12.6,7.9V1.2h-1v5.1l-3-3C7.6,2.3,6.4,1.5,5.1,1.5C3.1,1.5,2,3.1,2,4.6c0,1.3,0.6,2.5,2,3.2l0.5-0.9
	C3.4,6.4,3,5.6,3,4.6c0-1.1,0.7-2.1,2.1-2.1c1,0,1.9,0.7,2.8,1.6l3.8,3.8C11.7,7.9,12.6,7.9,12.6,7.9z M5.4,14.8
	c-1.5,0-2.4-1-2.4-2.5s1-2.5,2.4-2.5s2.4,1,2.4,2.5S6.9,14.8,5.4,14.8 M5.4,8.9c-2,0-3.4,1.5-3.4,3.5s1.4,3.5,3.5,3.5
	s3.4-1.5,3.4-3.5c0-0.3,0-0.6-0.1-0.8l3.8,2.6V13L7.5,9.5C7,9.1,6.3,8.9,5.4,8.9 M11.8,20.4c0,1.4-0.7,2.5-2,2.5s-2-1-2-2.5
	s0.7-2.5,2-2.5S11.8,19,11.8,20.4 M3,20.4c0-1.1,0.5-2.1,1.9-2.1c1.3,0,1.9,1,1.9,2.1s-0.6,2.1-1.9,2.1C3.5,22.5,3,21.5,3,20.4
	 M7.2,18.6c-0.5-0.8-1.3-1.4-2.3-1.4c-2,0-2.9,1.6-2.9,3.1c0,1.5,0.9,3.1,2.9,3.1c1.1,0,1.9-0.6,2.3-1.4c0.5,1,1.4,1.7,2.5,1.7
	c2,0,3-1.6,3-3.5s-1.1-3.5-3-3.5C8.6,16.9,7.7,17.6,7.2,18.6 M2.2,26.6l0.9,2.8L4,29.1l-0.7-2.3h9.3v-1.1H2.2V26.6z M2.2,33.6V41h1
	v-3.2h9.4v-1.1H3.2v-3.2C3.2,33.6,2.2,33.6,2.2,33.6z M12.8,45c0-2.1-1.1-3.5-2.9-3.5c-1.9,0-2.5,1.7-3.1,3.6
	c-0.5,1.4-0.8,2.3-1.9,2.3S3,46.5,3,45.3c0-1.4,0.8-2.2,1.7-2.6l-0.5-0.9C3.1,42.4,2,43.6,2,45.3s1,3.2,2.9,3.2s2.4-1.6,2.9-3.3
	c0.5-1.5,0.9-2.6,2.1-2.6c1.1,0,1.9,0.9,1.9,2.5c0,1.6-0.8,2.6-2.1,3l0.5,0.9C11.8,48.4,12.8,47,12.8,45 M11.6,55.2H7.9v-4.6h-1v4.6
	H3.2v-5h-1v6h10.4v-6.1h-1L11.6,55.2L11.6,55.2L11.6,55.2z"/>
<polygon class="st0" points="33.1,45.8 33.1,1.1 22.3,1.1 22.3,56.2 54.1,56.2 54.1,45.8 "/>
<path class="st0" d="M78,57.3c11.7,0,20-6.3,20-16.6c0-11.3-9.3-14.2-18-16.9c-8.3-2.5-10.5-4.3-10.5-7.7c0-3.1,2.7-5.5,7.2-5.5
	c5.6,0,8.6,2.9,10.5,7.1l9.1-5.3C92.7,4.6,85.8,0,76.8,0S58.7,6,58.7,16.3s8.2,14,16.6,16.4c8.2,2.4,11.9,3.9,11.9,8
	c0,3.1-2.3,5.8-8.8,5.8c-6.5,0-10.7-3.3-12.7-8.4l-9.3,5.4C59.4,51.8,66.8,57.3,78,57.3"/>
<path class="st0" d="M135.9,27.6c3.2-2.6,5.2-6.3,5.2-11c0-9.2-7.5-15.5-16.7-15.5h-21.7v55H126c9.5,0,17.1-6.5,17.1-16
	C143.2,34.5,140.3,30.1,135.9,27.6 M126,46h-12.5V33H126c3.7,0,6.4,2.8,6.4,6.4S129.7,46,126,46 M124.4,11.2c3.5,0,5.9,2.6,5.9,6.1
	s-2.5,6.1-5.9,6.1h-10.9V11.2L124.4,11.2L124.4,11.2z"/>
<path class="st0" d="M169.5,57.3c12.1,0,21.1-7.2,21.1-19.1v-37h-10.9v36.2c0,5.4-2.8,9.4-10.2,9.4s-10.2-4-10.2-9.4V1.1h-10.8v37
	C148.5,50,157.5,57.3,169.5,57.3"/>
<path class="st0" d="M226,21.6v2.9h-13.1V1.2h3.1v20.3H226L226,21.6z"/>
<path class="st0" d="M227.2,16.2c0-4.9,3.9-8.7,8.7-8.7c4.8,0,8.8,3.8,8.8,8.7s-3.9,8.7-8.8,8.7C231.1,24.9,227.2,21.1,227.2,16.2z
	 M241.8,16.2c0-3.4-2.6-5.9-5.9-5.9c-3.3,0-5.8,2.6-5.8,5.9s2.6,5.9,5.8,5.9C239.2,22.1,241.8,19.5,241.8,16.2z"/>
<path class="st0" d="M262.8,14.3v10.2h-2.9v-10c0-2.7-1.6-4.2-4.1-4.2c-2.6,0-4.8,1.6-4.8,5.5v8.8h-2.9V7.9h2.9v2.4
	c1.2-2,3.1-2.8,5.4-2.8C260.3,7.4,262.8,10,262.8,14.3L262.8,14.3z"/>
<path class="st0" d="M283.5,1.2v23.3h-2.9v-2.9c-1.3,2-3.5,3.3-6.3,3.3c-4.6,0-8.4-3.8-8.4-8.7s3.8-8.7,8.4-8.7c2.8,0,5,1.3,6.3,3.3
	V1.2H283.5z M280.6,16.2c0-3.4-2.6-6-5.9-6s-5.9,2.6-5.9,6s2.6,6,5.9,6C278.1,22.1,280.6,19.6,280.6,16.2z"/>
<path class="st0" d="M287,16.2c0-4.9,3.9-8.7,8.7-8.7s8.8,3.8,8.8,8.7s-3.9,8.7-8.8,8.7S287,21.1,287,16.2z M301.6,16.2
	c0-3.4-2.6-5.9-5.9-5.9s-5.8,2.6-5.8,5.9s2.6,5.9,5.8,5.9S301.6,19.5,301.6,16.2z"/>
<path class="st0" d="M322.6,14.3v10.2h-2.9v-10c0-2.7-1.6-4.2-4.1-4.2s-4.8,1.6-4.8,5.5v8.8h-2.9V7.9h2.9v2.4c1.2-2,3.1-2.8,5.4-2.8
	C320.1,7.4,322.6,10,322.6,14.3L322.6,14.3z"/>
<path class="st0" d="M333.9,19.2l2.7-1.5c0.8,2.6,2.8,4.2,6.2,4.2s4.9-1.5,4.9-3.6c0-2.4-2.1-3.2-5.5-4.2c-3.7-1.2-7.3-2.4-7.3-6.7
	s3.4-6.6,7.3-6.6c3.9,0,6.6,2.2,7.9,5.1l-2.6,1.5c-0.8-2-2.5-3.6-5.3-3.6c-2.5,0-4.2,1.3-4.2,3.5s1.6,3,4.9,4c4,1.3,7.9,2.5,7.9,7
	c0,4.1-3.3,6.7-8,6.7C338.3,24.9,335.2,22.7,333.9,19.2L333.9,19.2z"/>
<path class="st0" d="M353.6,16.2c0-4.9,3.9-8.7,8.7-8.7c4.8,0,8.8,3.8,8.8,8.7s-3.9,8.7-8.8,8.7C357.5,24.9,353.6,21.1,353.6,16.2z
	 M368.2,16.2c0-3.4-2.6-5.9-5.9-5.9c-3.3,0-5.8,2.6-5.8,5.9s2.6,5.9,5.8,5.9S368.2,19.5,368.2,16.2z"/>
<path class="st0" d="M388.9,7.9v16.6H386v-2.4c-1.2,2-3.1,2.8-5.4,2.8c-3.9,0-6.4-2.6-6.4-6.8V7.9h2.9v10c0,2.7,1.6,4.2,4.1,4.2
	s4.8-1.6,4.8-5.5V7.9H388.9z"/>
<path class="st0" d="M397.9,10.7v9c0,2.5,1.5,2.4,4.4,2.2v2.6c-5,0.7-7.3-0.7-7.3-4.8v-9h-3.3V7.9h3.3V4.1l2.9-0.9v4.6h4.4v2.8
	H397.9L397.9,10.7z"/>
<path class="st0" d="M420.4,14.3v10.2h-2.9v-10c0-2.7-1.6-4.2-4.1-4.2s-4.8,1.6-4.8,5.5v8.8h-2.9V1.2h2.9v9c1.2-2,3.1-2.8,5.4-2.8
	C417.9,7.4,420.4,10,420.4,14.3L420.4,14.3z"/>
<path class="st0" d="M229.6,50.5c0,3.7-3,6.6-6.8,6.6h-10V33.8h9.3c3.6,0,6.5,2.8,6.5,6.4c0,2.1-1,3.8-2.5,4.8
	C228.3,46.1,229.6,48,229.6,50.5L229.6,50.5z M215.9,36.7v7.1h6.2c1.9,0,3.5-1.6,3.5-3.6c0-2-1.5-3.6-3.5-3.6
	C222.2,36.7,215.9,36.7,215.9,36.7z M226.6,50.4c0-2.1-1.6-3.8-3.7-3.8h-7v7.6h7C225,54.2,226.6,52.6,226.6,50.4z"/>
<path class="st0" d="M249.7,40.5v16.6h-2.9v-2.9c-1.3,2-3.5,3.3-6.3,3.3c-4.6,0-8.4-3.8-8.4-8.7s3.8-8.7,8.4-8.7
	c2.8,0,5,1.3,6.3,3.3v-2.9L249.7,40.5L249.7,40.5L249.7,40.5z M246.8,48.8c0-3.4-2.6-6-5.9-6c-3.4,0-5.9,2.6-5.9,6
	c0,3.4,2.6,6,5.9,6S246.8,52.2,246.8,48.8z"/>
<path class="st0" d="M268.9,46.9v10.2H266v-10c0-2.7-1.6-4.2-4.1-4.2c-2.6,0-4.8,1.6-4.8,5.5v8.8h-2.9V40.5h2.9v2.4
	c1.2-2,3.1-2.8,5.4-2.8C266.3,40.1,268.9,42.7,268.9,46.9L268.9,46.9z"/>
<path class="st0" d="M283.3,57.1l-7.6-7.9v7.9h-2.9V33.8h2.9v14l7.2-7.4h3.7l-7.9,8l8.2,8.6L283.3,57.1L283.3,57.1L283.3,57.1z"/>
<path class="st0" d="M297.9,49.3V33.9h3.1v15.3c0,3.2,1.9,5.4,5.6,5.4c3.7,0,5.6-2.1,5.6-5.4V33.9h3.1v15.4c0,5-3.6,8.2-8.7,8.2
	C301.6,57.6,297.9,54.4,297.9,49.3L297.9,49.3z"/>
<path class="st0" d="M334.5,46.9v10.2h-2.9v-10c0-2.7-1.6-4.2-4.1-4.2s-4.8,1.6-4.8,5.5v8.8h-2.9V40.5h2.9v2.4
	c1.2-2,3.1-2.8,5.4-2.8C331.9,40.1,334.5,42.7,334.5,46.9L334.5,46.9z"/>
<path class="st0" d="M338,35.5c0-1.1,0.9-2,2-2s1.9,0.9,1.9,2c0,1.1-0.9,1.9-1.9,1.9S338,36.6,338,35.5z M338.5,40.5h2.9v16.6h-2.9
	C338.5,57.1,338.5,40.5,338.5,40.5z"/>
<path class="st0" d="M360.6,40.5l-6.6,16.6h-3.4l-6.6-16.6h3.1l5.2,13.5l5.2-13.5L360.6,40.5L360.6,40.5z"/>
<path class="st0" d="M370.4,54.8c2.3,0,4-1.1,4.8-2.4l2.5,1.4c-1.5,2.3-4,3.8-7.3,3.8c-5.4,0-8.9-3.8-8.9-8.7s3.5-8.7,8.7-8.7
	c5.2,0,8.3,4.1,8.3,8.8c0,0.4,0,0.9-0.1,1.3h-13.9C365,53.1,367.3,54.8,370.4,54.8L370.4,54.8z M364.4,47.6h11.1
	c-0.5-3.3-2.9-4.8-5.4-4.8C367,42.8,364.8,44.7,364.4,47.6z"/>
<path class="st0" d="M389.8,40.2v3c-2.5-0.1-5.2,1.2-5.2,5.1v8.8h-2.9V40.5h2.9v2.8C385.7,41,387.7,40.2,389.8,40.2z"/>
<path class="st0" d="M403.8,52.6c0,3.1-2.7,5-6.2,5c-3.3,0-5.6-1.6-6.6-3.9l2.5-1.4c0.5,1.6,2.1,2.6,4.1,2.6c1.8,0,3.3-0.6,3.3-2.3
	c0-3.6-9.3-1.5-9.3-7.6c0-2.9,2.5-5,5.9-5c2.7,0,4.9,1.3,6,3.5l-2.4,1.4c-0.6-1.5-2.1-2.1-3.6-2.1c-1.5,0-3,0.7-3,2.2
	C394.5,48.5,403.8,46.4,403.8,52.6L403.8,52.6z"/>
<path class="st0" d="M406.6,35.5c0-1.1,0.9-2,2-2c1.1,0,1.9,0.9,1.9,2c0,1.1-0.9,1.9-1.9,1.9C407.4,37.5,406.6,36.6,406.6,35.5z
	 M407,40.5h2.9v16.6H407C407,57.1,407,40.5,407,40.5z"/>
<path class="st0" d="M419,43.3v9c0,2.5,1.5,2.4,4.4,2.2v2.6c-5,0.7-7.3-0.7-7.3-4.8v-9h-3.3v-2.8h3.3v-3.8l2.9-0.9v4.6h4.4v2.8H419
	L419,43.3z"/>
<path class="st0" d="M441.9,40.5l-6.8,17.7c-1.4,3.7-4,5.8-7.4,5.6V61c2.2,0.2,3.6-1.2,4.5-3.4l0.3-0.6l-7.2-16.5h3.1l5.6,13l4.8-13
	L441.9,40.5L441.9,40.5z"/>
</svg>
